<svg height="369" node-id="1" sillyvg="true" template-height="369" template-width="850" version="1.1" viewBox="0 0 850 369" width="850" xmlns="http://www.w3.org/2000/svg" xmlns:xlink="http://www.w3.org/1999/xlink"><defs node-id="11"><linearGradient gradientUnits="objectBoundingBox" id="SVGID_1_" node-id="6" spreadMethod="pad" x1="418.4478" x2="418.4478" y1="304.7998" y2="114.6003"><stop offset="0" stop-color="#697eff"/><stop offset="1" stop-color="#697eff"/></linearGradient></defs><g node-id="31"><path d="M 34.40 342.00 L 33.20 343.00 L 24.80 345.60 L 23.40 345.00 L 22.90 343.60 L 23.10 342.80 L 24.20 341.80 L 32.80 339.10 L 34.10 339.80 L 34.50 340.40 L 34.40 342.00 Z M 64.50 329.80 L 65.10 330.30 L 65.50 331.80 L 64.70 333.10 L 64.10 333.50 L 43.50 339.70 L 42.00 339.60 L 41.30 339.10 L 40.90 337.70 L 41.50 336.30 L 42.20 335.90 L 63.00 329.60 L 64.50 329.80 Z M 82.60 289.90 L 84.00 290.50 L 88.10 294.80 L 88.10 296.30 L 87.70 297.00 L 86.30 297.50 L 84.80 297.00 L 80.70 292.70 L 80.70 291.10 L 81.10 290.50 L 82.60 289.90 Z M 73.00 289.10 L 73.80 289.20 L 74.90 290.30 L 74.90 291.80 L 70.10 296.70 L 68.60 296.70 L 67.90 296.30 L 67.50 295.60 L 67.40 294.10 L 71.60 289.70 L 73.00 289.10 Z M 80.40 280.90 L 83.30 278.00 L 84.70 277.40 L 85.40 277.60 L 86.50 278.60 L 86.60 280.20 L 83.30 283.70 L 81.90 284.30 L 81.10 284.20 L 80.00 283.10 L 80.00 281.60 L 80.40 280.90 Z M 68.80 276.10 L 70.30 276.70 L 73.60 280.30 L 73.50 281.80 L 72.40 282.90 L 70.90 282.90 L 70.30 282.50 L 66.90 278.80 L 67.00 277.30 L 68.10 276.20 L 68.80 276.10 Z M 325.40 344.60 L 326.20 344.80 L 327.10 346.00 L 326.90 347.60 L 326.40 348.20 L 317.50 354.90 L 316.00 355.30 L 315.20 355.00 L 314.30 353.80 L 314.50 352.30 L 315.00 351.70 L 323.90 345.00 L 325.40 344.60 Z M 324.10 337.20 L 325.10 338.30 L 325.00 339.80 L 323.90 340.80 L 322.30 340.70 L 314.70 337.00 L 313.70 335.90 L 313.80 334.40 L 314.20 333.70 L 315.70 333.20 L 324.10 337.20 Z M 331.00 347.10 L 331.40 346.50 L 332.90 345.90 L 334.30 346.60 L 337.60 355.40 L 337.00 356.80 L 336.30 357.20 L 335.50 357.30 L 334.10 356.70 L 330.90 348.70 L 331.00 347.10 Z M 343.30 335.60 L 344.10 335.40 L 345.50 336.00 L 346.20 337.40 L 345.60 338.80 L 337.80 342.60 L 337.10 342.80 L 335.60 342.30 L 335.00 340.90 L 335.50 339.40 L 343.30 335.60 Z M 192.50 331.00 L 193.20 331.30 L 193.90 332.70 L 193.50 334.20 L 187.00 337.90 L 185.50 338.00 L 184.80 337.70 L 184.10 336.30 L 184.50 334.80 L 191.00 331.20 L 192.50 331.00 Z M 199.10 332.40 L 200.30 331.40 L 201.80 331.60 L 207.60 335.00 L 208.00 336.50 L 207.80 337.20 L 206.60 338.20 L 205.00 338.00 L 199.30 334.60 L 198.90 333.10 L 199.10 332.40 Z M 285.50 291.30 L 286.00 291.90 L 286.20 293.40 L 285.20 294.60 L 284.40 294.80 L 256.00 297.40 L 228.50 300.60 L 201.80 304.20 L 176.10 308.20 L 151.10 312.70 L 127.00 317.60 L 103.70 322.90 L 81.10 328.70 L 79.60 328.50 L 79.00 328.00 L 78.60 326.50 L 79.40 325.20 L 80.10 324.80 L 102.70 319.10 L 126.10 313.70 L 150.30 308.80 L 175.30 304.30 L 201.20 300.20 L 227.90 296.60 L 255.50 293.50 L 284.10 290.80 L 285.50 291.30 Z M 205.20 320.40 L 206.00 320.60 L 207.00 321.80 L 206.80 323.30 L 201.80 327.60 L 200.30 327.50 L 199.70 327.00 L 199.30 326.30 L 199.40 324.80 L 203.70 320.80 L 205.20 320.40 Z M 195.10 322.30 L 195.50 323.00 L 195.40 324.50 L 194.30 325.50 L 193.50 325.60 L 192.10 324.90 L 188.40 320.70 L 188.00 320.00 L 188.10 318.50 L 189.20 317.40 L 190.00 317.30 L 191.40 318.00 L 195.10 322.30 Z M 154.20 266.00 L 152.00 266.30 L 150.00 267.10 L 148.20 268.50 L 146.80 270.30 L 145.90 272.20 L 145.70 274.50 L 145.90 276.70 L 146.80 278.70 L 148.20 280.50 L 150.00 281.90 L 152.00 282.70 L 154.20 283.00 L 156.50 282.70 L 158.40 281.90 L 160.30 280.50 L 161.60 278.70 L 162.50 276.70 L 162.80 274.50 L 162.50 272.20 L 161.60 270.30 L 160.30 268.50 L 158.40 267.10 L 156.50 266.30 L 154.20 266.00 Z M 141.70 274.50 L 141.90 272.00 L 142.60 269.70 L 143.70 267.60 L 145.30 265.60 L 147.30 264.00 L 149.40 262.90 L 151.70 262.20 L 154.20 262.00 L 156.70 262.20 L 159.00 262.90 L 161.10 264.00 L 163.10 265.60 L 164.70 267.60 L 165.80 269.70 L 166.50 272.00 L 166.80 274.50 L 166.50 277.00 L 165.80 279.30 L 164.70 281.40 L 163.10 283.40 L 161.10 285.00 L 159.00 286.10 L 156.70 286.80 L 154.20 287.00 L 151.70 286.80 L 149.40 286.10 L 147.30 285.00 L 145.30 283.40 L 143.70 281.40 L 142.60 279.30 L 141.90 277.00 L 141.70 274.50 Z M 131.70 219.40 L 132.10 220.10 L 132.10 221.60 L 131.00 222.70 L 120.00 222.90 L 119.80 234.00 L 118.70 235.10 L 117.20 235.10 L 116.50 234.60 L 116.00 233.20 L 116.00 222.90 L 105.60 222.90 L 104.20 222.30 L 103.60 220.90 L 104.20 219.40 L 105.60 218.90 L 116.00 218.90 L 116.00 208.50 L 116.50 207.00 L 117.20 206.60 L 118.70 206.60 L 119.80 207.70 L 120.00 218.80 L 130.30 218.80 L 131.70 219.40 Z M 182.20 158.90 L 182.30 158.10 L 183.40 157.00 L 185.00 157.00 L 186.10 158.10 L 186.20 166.80 L 194.90 166.90 L 196.00 168.00 L 196.10 168.80 L 196.00 169.50 L 194.90 170.60 L 186.20 170.80 L 186.10 179.40 L 185.00 180.50 L 183.40 180.50 L 182.80 180.10 L 182.20 178.70 L 182.20 170.80 L 173.60 170.60 L 172.50 169.50 L 172.40 168.80 L 172.50 168.00 L 173.60 166.90 L 182.20 166.80 L 182.20 158.90 Z M 330.10 326.20 L 331.50 326.70 L 332.10 328.20 L 331.90 334.50 L 330.80 335.60 L 330.10 335.70 L 328.60 335.10 L 328.10 333.70 L 328.20 327.40 L 329.30 326.30 L 330.10 326.20 Z M 319.60 291.70 L 319.10 291.10 L 319.00 289.50 L 320.00 288.40 L 320.80 288.20 L 346.00 286.90 L 372.80 286.10 L 373.90 287.10 L 373.90 288.70 L 372.90 289.80 L 372.10 290.00 L 321.00 292.20 L 319.60 291.70 Z M 218.60 56.30 L 219.80 56.20 L 220.90 56.60 L 221.80 57.40 L 222.30 58.40 L 222.80 61.40 L 222.50 62.50 L 221.70 63.40 L 220.60 63.90 L 219.50 64.00 L 218.40 63.60 L 217.50 62.80 L 217.00 61.80 L 216.40 58.80 L 216.80 57.70 L 217.60 56.80 L 218.60 56.30 Z M 210.80 27.20 L 213.10 26.80 L 215.30 26.90 L 217.40 27.40 L 219.40 28.40 L 221.50 29.70 L 223.00 31.30 L 224.20 33.20 L 225.00 35.30 L 225.40 37.60 L 225.30 39.80 L 224.70 42.00 L 222.60 45.80 L 219.60 48.30 L 220.50 52.60 L 220.10 53.80 L 219.30 54.60 L 218.30 55.20 L 217.10 55.20 L 216.00 54.80 L 215.10 54.10 L 214.60 53.00 L 213.00 46.50 L 213.10 45.80 L 213.90 44.40 L 216.70 43.10 L 217.70 42.20 L 219.20 39.70 L 219.20 36.90 L 217.80 34.50 L 215.10 33.00 L 213.80 32.80 L 211.00 33.50 L 209.90 34.40 L 209.00 35.50 L 208.50 36.80 L 208.30 38.20 L 208.90 42.20 L 208.50 43.30 L 207.60 44.10 L 206.60 44.60 L 205.40 44.60 L 204.30 44.10 L 203.50 43.30 L 202.80 41.30 L 202.40 39.00 L 202.40 36.80 L 202.80 34.70 L 203.70 32.70 L 205.20 30.70 L 206.80 29.10 L 208.70 28.00 L 210.80 27.20 Z M 243.20 15.00 L 248.40 16.60 L 252.60 18.60 L 256.10 20.80 L 258.90 23.30 L 261.00 26.00 L 262.70 29.00 L 263.80 32.40 L 264.50 35.80 L 264.50 39.20 L 264.00 42.70 L 262.80 46.20 L 261.00 49.90 L 258.30 53.70 L 253.10 59.30 L 256.60 72.20 L 256.60 73.20 L 255.70 75.20 L 253.70 76.00 L 252.60 75.80 L 236.90 70.00 L 223.40 74.80 L 216.70 76.30 L 210.30 77.30 L 204.20 77.60 L 198.40 77.50 L 192.90 76.80 L 187.60 75.70 L 182.50 74.00 L 178.30 72.00 L 174.90 69.80 L 172.20 67.30 L 170.00 64.60 L 168.40 61.60 L 167.30 58.30 L 166.60 54.80 L 166.50 51.40 L 167.00 47.90 L 168.10 44.40 L 170.00 40.80 L 172.60 36.90 L 176.10 33.00 L 180.10 29.30 L 184.60 25.90 L 189.50 22.90 L 195.00 20.20 L 201.00 17.80 L 207.60 15.80 L 214.40 14.20 L 220.80 13.30 L 226.80 12.90 L 232.60 13.10 L 238.00 13.80 L 243.20 15.00 Z M 241.70 20.80 L 236.90 19.70 L 231.90 19.10 L 226.70 19.00 L 221.20 19.30 L 215.30 20.20 L 209.10 21.60 L 203.10 23.40 L 197.60 25.60 L 192.70 28.10 L 188.20 30.80 L 184.10 33.80 L 180.40 37.20 L 177.20 40.80 L 175.00 44.20 L 173.50 47.50 L 172.80 50.60 L 172.60 53.70 L 173.10 56.70 L 174.20 59.60 L 175.80 62.10 L 178.10 64.40 L 181.00 66.50 L 184.60 68.30 L 189.20 69.90 L 194.00 70.90 L 199.00 71.50 L 204.30 71.60 L 209.90 71.30 L 215.70 70.40 L 221.90 69.00 L 236.80 63.70 L 249.20 68.10 L 246.80 59.10 L 246.80 57.40 L 247.70 56.00 L 250.50 53.50 L 253.70 49.80 L 256.00 46.40 L 257.50 43.10 L 258.30 40.00 L 258.40 37.00 L 258.00 33.90 L 256.90 31.10 L 255.20 28.50 L 252.90 26.20 L 250.00 24.10 L 246.30 22.30 L 241.70 20.80 Z M 654.00 337.30 L 655.50 337.00 L 656.80 337.90 L 657.00 339.40 L 656.10 340.70 L 650.00 344.10 L 648.50 343.80 L 648.00 343.20 L 647.70 342.40 L 648.10 341.00 L 654.00 337.30 Z M 670.20 327.80 L 670.50 329.30 L 669.70 330.60 L 665.50 333.50 L 664.80 333.80 L 663.30 333.50 L 662.40 332.30 L 662.70 330.80 L 663.20 330.20 L 668.10 326.90 L 669.60 327.20 L 670.20 327.80 Z M 664.20 337.50 L 665.50 338.20 L 669.40 343.10 L 669.20 344.60 L 668.00 345.60 L 667.30 345.70 L 665.90 344.90 L 662.10 340.00 L 662.20 338.50 L 663.40 337.50 L 664.20 337.50 Z M 453.50 345.80 L 454.30 344.70 L 455.00 342.30 L 454.40 339.80 L 453.50 338.80 L 451.40 337.50 L 450.10 337.30 L 447.60 338.00 L 446.60 338.80 L 445.30 341.00 L 445.20 342.30 L 445.80 344.70 L 446.60 345.80 L 447.60 346.60 L 450.10 347.20 L 451.40 347.00 L 453.50 345.80 Z M 459.00 342.30 L 458.70 344.60 L 457.80 346.70 L 456.40 348.60 L 454.50 350.10 L 452.40 350.90 L 450.10 351.20 L 447.80 350.90 L 445.70 350.10 L 443.70 348.60 L 442.30 346.70 L 441.40 344.60 L 441.20 342.30 L 441.40 339.90 L 442.30 337.80 L 443.70 336.00 L 445.70 334.50 L 447.80 333.60 L 450.10 333.30 L 452.40 333.60 L 454.50 334.50 L 456.40 336.00 L 457.80 337.90 L 458.70 339.90 L 459.00 342.30 Z M 578.90 351.60 L 579.50 350.20 L 583.90 346.00 L 585.50 346.00 L 586.10 346.40 L 586.70 347.90 L 586.10 349.30 L 581.70 353.50 L 580.10 353.50 L 579.50 353.00 L 578.90 351.60 Z M 584.80 336.40 L 585.20 337.10 L 585.20 338.60 L 584.10 339.70 L 583.30 339.80 L 581.90 339.20 L 579.00 336.20 L 578.60 335.60 L 578.60 334.10 L 579.70 333.00 L 580.50 332.80 L 581.90 333.50 L 584.80 336.40 Z M 596.30 334.20 L 597.10 334.30 L 598.20 335.40 L 598.20 336.90 L 595.00 340.50 L 593.60 341.10 L 592.80 340.90 L 591.70 339.90 L 591.60 338.30 L 594.90 334.80 L 596.30 334.20 Z M 595.60 347.20 L 599.30 350.90 L 599.90 352.30 L 599.80 353.00 L 598.70 354.10 L 597.20 354.20 L 596.50 353.70 L 592.80 350.10 L 592.20 348.70 L 592.30 347.90 L 593.40 346.80 L 594.90 346.80 L 595.60 347.20 Z M 457.50 288.90 L 457.00 288.20 L 457.10 286.70 L 458.20 285.60 L 458.90 285.50 L 482.20 286.10 L 505.70 287.10 L 506.70 288.30 L 506.60 289.80 L 505.50 290.80 L 504.70 290.90 L 458.90 289.50 L 457.50 288.90 Z M 756.40 321.50 L 757.60 322.40 L 757.90 323.90 L 756.90 325.10 L 755.40 325.40 L 734.90 320.40 L 713.90 315.80 L 692.20 311.50 L 669.80 307.60 L 646.80 304.00 L 623.10 300.80 L 598.70 298.00 L 597.30 297.30 L 596.90 295.80 L 597.60 294.50 L 599.10 294.00 L 623.60 296.80 L 647.40 300.10 L 670.50 303.70 L 692.90 307.60 L 714.70 311.90 L 735.90 316.50 L 756.40 321.50 Z M 751.80 279.20 L 752.50 279.40 L 753.40 280.70 L 753.20 282.20 L 747.70 286.20 L 746.20 286.00 L 745.70 285.40 L 745.30 284.70 L 745.50 283.20 L 750.30 279.60 L 751.80 279.20 Z M 755.50 281.10 L 756.20 280.70 L 757.70 280.90 L 761.70 285.30 L 762.10 286.80 L 761.40 288.20 L 760.70 288.50 L 759.20 288.40 L 755.20 283.90 L 754.80 282.50 L 755.50 281.10 Z M 758.40 276.00 L 759.60 275.10 L 763.90 274.10 L 765.30 274.80 L 765.60 276.30 L 764.80 277.70 L 764.10 278.00 L 759.80 279.00 L 758.50 278.20 L 758.20 277.50 L 758.40 276.00 Z M 754.00 274.60 L 753.60 273.10 L 754.90 267.00 L 756.20 266.10 L 757.00 266.10 L 758.30 266.90 L 758.60 268.40 L 757.30 274.60 L 756.00 275.50 L 755.30 275.50 L 754.00 274.60 Z M 743.70 270.30 L 744.30 269.80 L 745.80 269.60 L 752.30 274.50 L 753.10 275.80 L 752.70 277.30 L 752.10 277.80 L 750.60 278.00 L 744.00 273.10 L 743.30 271.80 L 743.70 270.30 Z M 651.70 324.10 L 652.10 323.30 L 653.40 322.60 L 654.90 323.00 L 658.70 329.40 L 658.30 330.90 L 657.70 331.40 L 657.00 331.60 L 655.50 331.20 L 651.90 325.60 L 651.70 324.10 Z M 672.40 253.30 L 673.20 253.40 L 674.30 254.50 L 674.40 264.20 L 684.00 264.30 L 685.10 265.40 L 685.30 266.20 L 685.10 266.90 L 684.00 268.00 L 674.40 268.20 L 674.30 277.80 L 673.20 278.90 L 672.40 279.00 L 671.60 278.90 L 670.50 277.80 L 670.40 268.20 L 660.70 268.00 L 659.60 266.90 L 659.50 266.20 L 659.60 265.40 L 660.70 264.30 L 670.40 264.20 L 670.50 254.50 L 671.60 253.40 L 672.40 253.30 Z M 673.40 171.60 L 674.10 171.10 L 675.60 171.10 L 676.70 172.20 L 676.90 180.90 L 685.50 181.00 L 686.60 182.10 L 686.60 183.70 L 685.50 184.80 L 684.80 184.90 L 676.90 184.90 L 676.70 193.60 L 675.60 194.70 L 674.10 194.70 L 673.40 194.20 L 672.90 192.80 L 672.90 184.90 L 664.20 184.80 L 663.10 183.70 L 663.00 182.90 L 663.10 182.10 L 664.20 181.00 L 672.90 180.90 L 672.90 173.00 L 673.40 171.60 Z M 726.80 217.50 L 724.70 217.70 L 722.70 218.30 L 720.90 219.30 L 719.20 220.70 L 717.80 222.30 L 716.80 224.10 L 716.30 226.00 L 716.10 228.20 L 716.20 230.30 L 716.80 232.30 L 717.80 234.10 L 719.20 235.70 L 720.90 237.10 L 722.70 238.10 L 724.70 238.70 L 726.80 238.90 L 728.90 238.70 L 730.80 238.10 L 732.60 237.10 L 734.30 235.80 L 735.70 234.10 L 736.70 232.30 L 737.30 230.30 L 737.50 228.20 L 737.20 226.00 L 736.70 224.10 L 735.70 222.30 L 734.30 220.70 L 732.60 219.30 L 730.80 218.30 L 728.90 217.70 L 726.80 217.50 Z M 716.40 217.80 L 718.70 215.90 L 721.20 214.60 L 723.90 213.80 L 726.80 213.50 L 729.70 213.80 L 732.40 214.60 L 734.80 215.90 L 737.10 217.80 L 739.00 220.10 L 740.40 222.60 L 741.20 225.20 L 741.40 228.10 L 741.20 231.10 L 740.40 233.80 L 739.00 236.30 L 737.10 238.50 L 734.80 240.50 L 732.40 241.80 L 729.70 242.60 L 726.80 242.90 L 723.90 242.60 L 721.20 241.80 L 718.70 240.50 L 716.40 238.60 L 714.50 236.30 L 713.10 233.80 L 712.30 231.10 L 712.00 228.10 L 712.30 225.20 L 713.10 222.60 L 714.50 220.10 L 716.40 217.80 Z M 806.60 336.20 L 806.80 337.00 L 806.30 338.40 L 805.00 339.10 L 804.20 339.10 L 786.90 333.80 L 769.10 328.90 L 767.90 328.00 L 767.70 327.20 L 768.10 325.70 L 769.40 325.00 L 770.10 325.00 L 788.00 330.00 L 805.40 335.30 L 806.60 336.20 Z M 825.80 345.40 L 824.30 345.60 L 812.70 341.70 L 812.00 341.40 L 811.40 340.00 L 811.80 338.50 L 813.20 337.90 L 814.00 338.00 L 825.50 341.80 L 826.20 342.10 L 826.90 343.50 L 826.40 345.00 L 825.80 345.40 Z M 658.80 78.50 L 659.60 77.70 L 660.70 77.30 L 661.80 77.20 L 662.90 77.70 L 663.70 78.50 L 664.20 79.60 L 664.20 80.80 L 663.80 81.90 L 659.70 87.50 L 658.70 87.90 L 657.50 87.90 L 656.40 87.50 L 655.60 86.60 L 655.10 85.60 L 655.10 84.40 L 658.80 78.50 Z M 680.80 46.40 L 681.60 45.60 L 682.70 45.20 L 683.80 45.20 L 684.90 45.60 L 685.80 46.40 L 686.20 47.50 L 686.20 48.70 L 685.70 49.80 L 671.10 71.30 L 670.30 72.20 L 669.20 72.60 L 668.00 72.60 L 666.90 72.10 L 666.10 71.30 L 665.70 70.20 L 665.70 69.10 L 666.10 68.00 L 680.80 46.40 Z M 465.90 36.50 L 466.30 37.60 L 466.20 38.80 L 461.10 60.30 L 460.60 61.30 L 459.80 62.10 L 458.70 62.50 L 457.50 62.50 L 456.40 62.00 L 455.60 61.10 L 455.20 60.00 L 455.30 58.90 L 460.40 37.40 L 460.90 36.30 L 461.70 35.50 L 462.80 35.10 L 464.00 35.10 L 465.10 35.60 L 465.90 36.50 Z M 494.70 39.80 L 494.60 41.00 L 494.10 42.00 L 474.60 67.00 L 473.70 67.70 L 472.60 68.10 L 471.40 68.00 L 470.40 67.50 L 469.60 66.60 L 469.30 65.50 L 469.40 64.30 L 469.90 63.30 L 489.40 38.30 L 490.20 37.50 L 491.40 37.20 L 492.50 37.30 L 493.60 37.80 L 494.30 38.70 L 494.70 39.80 Z M 502.20 59.50 L 503.30 60.00 L 504.10 60.80 L 504.50 61.90 L 504.50 63.10 L 504.10 64.10 L 503.30 65.00 L 483.40 78.10 L 482.30 78.50 L 481.10 78.50 L 480.00 78.00 L 479.20 77.20 L 478.80 76.10 L 478.80 75.00 L 479.20 73.90 L 480.00 73.10 L 500.00 60.00 L 501.00 59.50 L 502.20 59.50 Z" fill="#697eff" fill-rule="evenodd" group-id="1" node-id="24" stroke="currne" target-height="344.4" target-width="804" target-x="22.9" target-y="12.9"/></g><path d="M 260.40 251.80 L 278.20 250.60 L 275.60 213.20 L 260.40 251.80 Z M 276.10 197.10 L 277.00 196.70 L 279.00 197.00 L 280.40 198.50 L 280.60 199.40 L 284.40 253.20 L 284.30 254.30 L 283.70 255.30 L 282.70 256.10 L 281.60 256.40 L 256.10 258.20 L 255.10 258.10 L 253.50 256.90 L 252.90 255.00 L 274.80 198.50 L 276.10 197.10 Z M 336.60 268.40 L 337.30 269.30 L 337.60 270.40 L 338.40 281.10 L 338.20 282.30 L 337.60 283.30 L 336.70 284.00 L 335.60 284.30 L 322.60 285.20 L 322.80 291.70 L 322.20 292.70 L 321.20 293.40 L 320.10 293.70 L 318.90 293.60 L 317.90 293.00 L 317.20 292.00 L 316.90 290.90 L 316.40 282.60 L 316.50 281.50 L 317.10 280.50 L 318.00 279.80 L 319.20 279.50 L 332.20 278.50 L 331.60 270.80 L 331.70 269.60 L 332.40 268.60 L 333.30 267.90 L 334.40 267.60 L 335.60 267.70 L 336.60 268.40 Z M 415.40 129.60 L 418.60 129.80 L 421.40 130.60 L 424.00 132.00 L 426.40 133.90 L 428.50 136.30 L 430.00 138.80 L 430.80 141.60 L 431.10 144.60 L 431.10 261.30 L 430.80 264.30 L 429.90 267.00 L 428.50 269.60 L 426.40 272.00 L 424.00 273.90 L 421.40 275.20 L 418.50 276.00 L 415.40 276.30 L 412.20 276.00 L 409.40 275.20 L 406.70 273.80 L 404.30 271.90 L 402.20 269.60 L 400.80 267.00 L 399.90 264.30 L 399.70 261.30 L 399.70 144.60 L 399.90 141.60 L 400.80 138.80 L 402.20 136.30 L 404.30 133.90 L 406.70 132.00 L 409.30 130.60 L 412.20 129.80 L 415.40 129.60 Z M 415.40 135.60 L 412.80 135.90 L 410.50 136.70 L 408.40 138.20 L 406.90 140.10 L 406.00 142.20 L 405.70 144.60 L 405.70 261.30 L 406.30 264.70 L 408.40 267.60 L 411.60 269.60 L 415.40 270.30 L 419.10 269.60 L 422.30 267.60 L 424.40 264.70 L 425.10 261.30 L 425.10 144.60 L 424.40 141.20 L 422.30 138.20 L 419.20 136.20 L 415.40 135.60 Z M 270.10 113.10 L 271.70 109.70 L 273.70 107.00 L 275.90 104.70 L 278.40 102.90 L 281.40 101.60 L 284.70 100.70 L 288.50 100.30 L 293.10 100.40 L 297.40 101.30 L 300.90 102.50 L 303.80 104.10 L 306.10 106.00 L 308.00 108.30 L 309.40 110.90 L 310.30 113.90 L 310.80 117.50 L 320.00 247.70 L 332.90 246.80 L 334.10 246.90 L 335.10 247.50 L 335.90 248.40 L 336.20 249.60 L 336.40 257.40 L 335.90 258.40 L 334.90 259.10 L 333.80 259.40 L 332.60 259.30 L 331.60 258.70 L 330.90 257.70 L 330.60 256.60 L 330.40 253.00 L 317.40 253.90 L 316.20 253.80 L 315.20 253.20 L 314.50 252.20 L 314.20 251.10 L 304.80 117.80 L 304.30 115.20 L 303.50 112.90 L 302.20 111.10 L 300.60 109.50 L 298.40 108.10 L 295.80 107.10 L 292.50 106.40 L 288.80 106.30 L 285.70 106.70 L 283.00 107.60 L 280.70 108.90 L 278.80 110.50 L 277.10 112.70 L 275.70 115.30 L 222.90 250.40 L 222.30 252.80 L 222.30 255.20 L 223.80 275.40 L 225.40 278.90 L 228.30 282.00 L 231.00 283.50 L 233.70 284.40 L 236.40 285.00 L 239.40 285.00 L 283.40 282.00 L 284.60 282.10 L 285.60 282.70 L 286.30 283.60 L 286.60 284.80 L 288.00 305.20 L 317.70 303.00 L 317.70 299.30 L 318.30 298.20 L 319.20 297.50 L 320.30 297.20 L 321.50 297.30 L 322.50 297.90 L 323.20 298.80 L 323.60 300.00 L 323.80 306.80 L 323.20 307.80 L 322.30 308.50 L 321.20 308.80 L 285.40 311.30 L 284.20 311.20 L 283.20 310.60 L 282.50 309.70 L 282.20 308.50 L 280.80 288.10 L 239.80 291.00 L 236.60 291.00 L 233.50 290.60 L 230.50 289.80 L 227.60 288.50 L 224.60 286.70 L 222.20 284.50 L 220.40 282.20 L 219.00 279.80 L 218.00 276.90 L 217.60 273.70 L 216.30 255.60 L 216.60 250.90 L 217.30 248.40 L 270.10 113.10 Z M 606.30 275.80 L 607.20 275.20 L 608.40 275.00 L 609.60 275.20 L 610.50 275.80 L 611.20 276.80 L 611.40 278.00 L 611.00 280.20 L 609.30 284.90 L 607.90 287.90 L 605.60 291.80 L 602.70 295.40 L 599.20 298.90 L 598.20 299.50 L 597.10 299.60 L 595.90 299.30 L 595.00 298.60 L 594.40 297.60 L 594.30 296.40 L 594.50 295.30 L 598.20 291.50 L 600.60 288.40 L 602.60 285.10 L 603.80 282.50 L 605.70 276.70 L 606.30 275.80 Z M 465.30 258.30 L 464.10 258.00 L 463.20 257.40 L 462.50 256.40 L 462.30 255.30 L 462.30 140.20 L 462.00 135.90 L 461.20 131.70 L 459.80 127.80 L 457.90 124.00 L 455.50 120.30 L 452.40 116.70 L 448.60 113.30 L 444.60 110.20 L 440.30 107.60 L 435.90 105.40 L 431.20 103.80 L 426.20 102.60 L 421.00 101.80 L 415.40 101.60 L 409.80 101.80 L 404.60 102.60 L 399.60 103.80 L 394.90 105.40 L 390.40 107.60 L 386.20 110.20 L 382.10 113.30 L 378.30 116.70 L 375.30 120.30 L 372.80 124.00 L 370.90 127.80 L 369.60 131.70 L 368.80 135.90 L 368.50 140.20 L 368.50 266.20 L 369.20 273.00 L 370.10 276.60 L 371.50 280.00 L 373.30 283.40 L 375.60 286.60 L 378.60 289.90 L 382.00 293.10 L 389.60 298.20 L 394.20 300.30 L 399.00 302.00 L 404.20 303.20 L 409.60 304.00 L 415.40 304.20 L 421.20 303.90 L 426.60 303.20 L 431.70 302.00 L 436.60 300.30 L 441.20 298.10 L 446.60 295.10 L 447.80 295.00 L 448.90 295.50 L 449.70 296.30 L 450.10 297.40 L 450.20 298.60 L 449.70 299.60 L 448.90 300.50 L 444.00 303.40 L 438.90 305.80 L 433.60 307.70 L 427.90 309.10 L 421.80 309.90 L 415.40 310.20 L 409.00 309.90 L 402.90 309.10 L 397.20 307.70 L 391.90 305.80 L 386.80 303.40 L 381.90 300.50 L 378.20 297.80 L 374.20 294.10 L 371.00 290.40 L 368.20 286.50 L 366.00 282.60 L 364.40 278.50 L 363.30 274.20 L 362.50 266.20 L 362.50 140.20 L 362.70 135.70 L 363.40 131.50 L 364.60 127.40 L 366.30 123.40 L 368.40 119.60 L 371.10 115.90 L 374.40 112.20 L 378.20 108.60 L 382.80 105.20 L 387.60 102.30 L 392.60 99.90 L 397.80 98.10 L 403.30 96.70 L 409.20 95.90 L 415.40 95.60 L 421.60 95.90 L 427.50 96.70 L 433.00 98.10 L 438.20 99.90 L 443.20 102.30 L 447.90 105.20 L 452.50 108.60 L 456.40 112.20 L 459.60 115.90 L 462.30 119.60 L 464.50 123.40 L 466.20 127.40 L 467.40 131.50 L 468.10 135.70 L 468.30 140.20 L 468.30 255.20 L 468.10 256.40 L 467.40 257.40 L 466.50 258.00 L 465.30 258.30 Z M 463.20 264.10 L 464.10 263.40 L 465.30 263.20 L 466.50 263.40 L 467.40 264.10 L 468.10 265.00 L 468.30 266.20 L 468.20 269.80 L 467.60 274.20 L 466.40 278.50 L 464.80 282.60 L 462.60 286.50 L 459.80 290.40 L 459.00 291.10 L 457.80 291.50 L 456.70 291.40 L 455.60 290.90 L 454.90 290.00 L 454.50 288.90 L 454.60 287.70 L 459.30 280.00 L 460.70 276.60 L 461.70 273.00 L 462.50 265.00 L 463.20 264.10 Z M 555.60 141.40 L 555.60 141.30 Z M 521.70 114.50 L 526.30 111.50 L 531.30 109.00 L 536.80 107.00 L 542.70 105.40 L 549.20 104.30 L 556.30 103.80 L 564.10 103.80 L 571.40 104.30 L 578.20 105.30 L 584.50 106.80 L 590.40 108.80 L 596.40 111.50 L 601.50 114.30 L 605.90 117.30 L 609.70 120.60 L 612.90 124.00 L 615.60 127.60 L 617.70 131.40 L 619.20 135.50 L 620.60 145.50 L 616.90 199.50 L 616.20 202.60 L 615.10 205.70 L 613.40 208.70 L 611.30 211.70 L 608.50 214.70 L 610.50 218.00 L 613.30 224.40 L 614.20 227.80 L 614.50 231.00 L 612.30 264.30 L 612.00 265.50 L 611.30 266.40 L 610.30 267.00 L 609.10 267.10 L 608.00 266.80 L 607.10 266.10 L 606.50 265.00 L 606.30 263.90 L 608.40 233.90 L 608.20 228.60 L 607.40 225.60 L 606.10 222.50 L 602.10 216.10 L 601.60 215.10 L 601.50 214.00 L 601.80 212.90 L 602.50 212.00 L 605.80 208.80 L 608.10 205.70 L 609.80 202.60 L 610.70 199.40 L 611.10 196.10 L 614.60 145.00 L 613.50 137.10 L 612.10 133.80 L 610.30 130.60 L 608.10 127.60 L 605.50 124.80 L 602.30 122.00 L 598.30 119.40 L 593.60 116.80 L 588.20 114.40 L 582.80 112.60 L 576.90 111.20 L 570.60 110.30 L 556.70 109.80 L 550.30 110.30 L 544.40 111.20 L 538.90 112.60 L 534.00 114.40 L 529.40 116.70 L 525.20 119.40 L 521.40 122.40 L 518.30 125.40 L 516.00 128.50 L 514.20 131.70 L 512.90 135.00 L 512.10 138.50 L 510.20 165.90 L 546.90 168.50 L 548.80 141.60 L 549.20 140.40 L 551.40 137.20 L 555.40 135.10 L 563.20 134.30 L 568.10 134.90 L 571.30 135.60 L 575.00 137.60 L 576.30 139.20 L 577.20 141.10 L 577.80 144.20 L 574.30 193.90 L 574.10 195.30 L 573.60 196.30 L 571.80 197.50 L 568.90 198.70 L 566.00 199.00 L 545.70 197.80 L 544.00 222.80 L 565.30 224.30 L 568.70 225.70 L 570.50 227.60 L 570.90 228.60 L 571.70 232.50 L 568.50 275.00 L 566.40 278.30 L 565.40 279.30 L 562.60 280.60 L 560.30 281.10 L 557.20 281.30 L 552.70 281.20 L 548.00 280.30 L 542.90 278.40 L 541.30 277.30 L 540.40 276.30 L 539.70 273.70 L 541.60 245.20 L 504.90 242.60 L 502.80 272.60 L 503.50 278.00 L 505.00 281.60 L 507.00 285.10 L 509.50 288.30 L 515.30 293.80 L 518.30 296.00 L 521.90 298.10 L 530.90 301.90 L 536.50 303.50 L 542.90 304.70 L 550.00 305.50 L 558.50 305.80 L 564.50 305.60 L 570.20 305.00 L 582.90 302.10 L 584.00 302.40 L 584.90 303.10 L 585.50 304.20 L 585.70 305.30 L 585.30 306.40 L 584.60 307.40 L 583.60 308.00 L 580.30 309.00 L 571.20 310.90 L 565.10 311.60 L 558.60 311.80 L 549.60 311.50 L 543.40 310.90 L 532.40 308.60 L 527.60 307.10 L 519.10 303.40 L 514.90 301.00 L 511.30 298.30 L 505.10 292.30 L 502.70 289.30 L 500.60 286.20 L 497.70 279.60 L 496.70 272.50 L 499.10 239.20 L 499.30 238.10 L 500.10 237.10 L 501.10 236.50 L 502.30 236.40 L 545.00 239.40 L 546.10 239.60 L 547.10 240.40 L 547.70 241.40 L 547.80 242.60 L 545.70 273.10 L 548.50 274.20 L 553.60 275.20 L 557.40 275.30 L 559.90 275.00 L 561.50 274.50 L 562.00 274.30 L 562.70 273.10 L 565.60 232.20 L 565.10 230.60 L 564.40 230.30 L 540.60 228.60 L 539.50 228.30 L 538.60 227.60 L 538.00 226.60 L 537.80 225.40 L 540.00 194.50 L 540.20 193.30 L 541.00 192.40 L 542.00 191.80 L 543.20 191.70 L 561.70 193.00 L 566.00 193.00 L 568.40 192.50 L 571.80 144.10 L 571.30 142.70 L 570.40 141.80 L 566.60 140.70 L 563.00 140.30 L 557.20 140.90 L 555.40 142.30 L 554.80 143.30 L 552.80 171.90 L 552.40 173.00 L 551.70 173.90 L 550.70 174.50 L 549.60 174.70 L 506.80 171.70 L 505.70 171.40 L 504.80 170.70 L 504.10 169.70 L 504.00 168.50 L 506.20 138.10 L 506.80 134.20 L 508.00 130.70 L 509.60 127.30 L 511.70 124.00 L 514.40 120.80 L 517.70 117.60 L 521.70 114.50 Z" fill="url(#SVGID_1_)" fill-rule="evenodd" group-id="2" node-id="29" stroke="none" target-height="216.19998" target-width="404.3" target-x="216.3" target-y="95.6"/></svg>